<?xml version="1.0" standalone="no"?><!-- Generator: Gravit.io --><svg xmlns="http://www.w3.org/2000/svg" xmlns:xlink="http://www.w3.org/1999/xlink" style="isolation:isolate" viewBox="0 0 1080 1080" width="1080" height="1080"><defs><clipPath id="_clipPath_3YUlICsb83xUlhInZJu2ffIeau2V6suU"><rect width="1080" height="1080"/></clipPath></defs><g clip-path="url(#_clipPath_3YUlICsb83xUlhInZJu2ffIeau2V6suU)"><path d=" M 823.894 551.082 L 813.313 551.082 C 818.898 555.034 824.253 559.357 829.339 564.037 C 858.898 591.164 877.247 628.337 880.895 668.26 C 881.213 672.173 879.997 676.086 877.511 679.1 C 874.973 682.114 871.377 684.017 867.465 684.335 C 863.551 684.705 859.638 683.489 856.624 681.003 C 853.61 678.465 851.76 674.87 851.39 670.957 C 848.428 638.331 833.411 607.979 809.299 585.823 C 785.028 563.508 753.248 551.082 720.252 551.082 L 717.714 551.082 C 713.801 551.135 710.047 549.601 707.244 546.852 C 704.442 544.102 702.855 540.348 702.802 536.435 C 702.749 532.522 704.283 528.715 707.032 525.912 C 709.782 523.11 713.537 521.523 717.502 521.47 L 718.8 521.47 L 718.8 521.47 L 824.62 521.47 L 824.62 521.499 C 851.42 521.149 873.07 499.283 873.07 472.401 L 873.07 472.401 L 873.095 472.401 C 872.088 446.186 850.489 425.212 824.029 425.212 L 824.029 425.212 C 824.028 425.212 824.028 425.212 824.027 425.212 L 377.135 425.212 L 377.135 425.286 C 376.236 425.237 375.33 425.212 374.418 425.212 L 374.418 425.212 C 347.647 425.212 325.851 446.681 325.332 473.329 C 325.849 499.978 347.646 521.45 374.418 521.45 L 374.418 521.45 C 374.418 521.45 374.419 521.45 374.42 521.45 L 572.308 521.45 L 572.421 521.45 L 572.421 521.45 C 593.267 521.48 613.262 529.778 627.989 544.505 C 642.518 559.033 650.79 578.69 651.038 599.233 L 651.044 599.233 L 651.044 606.002 L 651.043 606.002 C 650.931 626.736 642.642 646.606 627.989 661.259 C 613.294 675.954 593.352 684.249 572.554 684.314 L 572.554 684.314 L 572.308 684.314 L 572.308 684.314 L 255.971 684.314 L 255.136 684.314 L 255.136 684.309 C 234.558 684.086 214.863 675.81 200.311 661.259 C 185.713 646.661 177.431 626.884 177.259 606.234 L 177.257 606.234 L 177.257 410.439 L 177.257 410.439 L 177.257 410.406 L 177.257 410.406 C 177.275 402.25 183.902 395.633 192.062 395.633 C 200.223 395.633 206.85 402.25 206.868 410.406 L 206.868 410.406 L 206.868 410.439 L 206.868 410.439 L 206.868 605.599 L 206.868 605.599 L 206.868 605.599 C 206.868 632.695 228.862 654.693 255.955 654.702 L 572.328 654.702 C 572.328 654.702 572.329 654.702 572.329 654.702 L 572.329 654.702 C 599.397 654.702 621.379 632.753 621.432 605.698 L 621.432 605.698 L 621.432 600.11 C 621.403 573.034 599.412 551.061 572.329 551.061 L 572.329 551.061 C 572.329 551.061 572.328 551.061 572.328 551.061 L 374.439 551.061 L 374.439 551.061 L 373.397 551.061 L 373.397 551.054 C 352.886 550.783 333.266 542.514 318.758 528.007 C 304.474 513.722 296.238 494.481 295.728 474.315 L 295.728 472.347 C 296.237 452.18 304.474 432.939 318.758 418.655 C 333.511 403.902 353.552 395.6 374.439 395.6 L 374.439 395.6 C 374.522 395.6 374.606 395.6 374.69 395.6 L 374.69 395.6 L 824.008 395.6 L 824.008 395.6 L 824.748 395.6 L 824.748 395.603 C 845.368 395.797 865.11 404.076 879.689 418.655 C 894.437 433.403 902.738 453.435 902.743 474.315 L 902.658 474.315 C 902.162 494.501 893.923 513.764 879.626 528.061 C 864.873 542.814 844.833 551.115 823.946 551.115 L 823.946 551.115 C 823.928 551.115 823.911 551.104 823.894 551.082 Z " fill="rgb(0,0,0)" vector-effect="non-scaling-stroke" stroke-width="15" stroke="rgb(0,0,0)" stroke-linejoin="round" stroke-linecap="round" stroke-miterlimit="4"/><path d=" M 823.894 551.082 L 813.313 551.082 C 818.898 555.034 824.253 559.357 829.339 564.037 C 858.898 591.164 877.247 628.337 880.895 668.26 C 881.213 672.173 879.997 676.086 877.511 679.1 C 874.973 682.114 871.377 684.017 867.465 684.335 C 863.551 684.705 859.638 683.489 856.624 681.003 C 853.61 678.465 851.76 674.87 851.39 670.957 C 848.428 638.331 833.411 607.979 809.299 585.823 C 785.028 563.508 753.248 551.082 720.252 551.082 L 717.714 551.082 C 713.801 551.135 710.047 549.601 707.244 546.852 C 704.442 544.102 702.855 540.348 702.802 536.435 C 702.749 532.522 704.283 528.715 707.032 525.912 C 709.782 523.11 713.537 521.523 717.502 521.47 L 718.8 521.47 L 718.8 521.47 L 824.62 521.47 L 824.62 521.499 C 851.42 521.149 873.07 499.283 873.07 472.401 L 873.07 472.401 L 873.095 472.401 C 872.088 446.186 850.489 425.212 824.029 425.212 L 824.029 425.212 C 824.028 425.212 824.028 425.212 824.027 425.212 L 377.135 425.212 L 377.135 425.286 C 376.236 425.237 375.33 425.212 374.418 425.212 L 374.418 425.212 C 347.647 425.212 325.851 446.681 325.332 473.329 C 325.849 499.978 347.646 521.45 374.418 521.45 L 374.418 521.45 C 374.418 521.45 374.419 521.45 374.42 521.45 L 572.308 521.45 L 572.421 521.45 L 572.421 521.45 C 593.267 521.48 613.262 529.778 627.989 544.505 C 642.518 559.033 650.79 578.69 651.038 599.233 L 651.044 599.233 L 651.044 606.002 L 651.043 606.002 C 650.931 626.736 642.642 646.606 627.989 661.259 C 613.294 675.954 593.352 684.249 572.554 684.314 L 572.554 684.314 L 572.308 684.314 L 572.308 684.314 L 255.971 684.314 L 255.136 684.314 L 255.136 684.309 C 234.558 684.086 214.863 675.81 200.311 661.259 C 185.713 646.661 177.431 626.884 177.259 606.234 L 177.257 606.234 L 177.257 410.439 L 177.257 410.439 L 177.257 410.406 L 177.257 410.406 C 177.275 402.25 183.902 395.633 192.062 395.633 C 200.223 395.633 206.85 402.25 206.868 410.406 L 206.868 410.406 L 206.868 410.439 L 206.868 410.439 L 206.868 605.599 L 206.868 605.599 L 206.868 605.599 C 206.868 632.695 228.862 654.693 255.955 654.702 L 572.328 654.702 C 572.328 654.702 572.329 654.702 572.329 654.702 L 572.329 654.702 C 599.397 654.702 621.379 632.753 621.432 605.698 L 621.432 605.698 L 621.432 600.11 C 621.403 573.034 599.412 551.061 572.329 551.061 L 572.329 551.061 C 572.329 551.061 572.328 551.061 572.328 551.061 L 374.439 551.061 L 374.439 551.061 L 373.397 551.061 L 373.397 551.054 C 352.886 550.783 333.266 542.514 318.758 528.007 C 304.474 513.722 296.238 494.481 295.728 474.315 L 295.728 472.347 C 296.237 452.18 304.474 432.939 318.758 418.655 C 333.511 403.902 353.552 395.6 374.439 395.6 L 374.439 395.6 C 374.522 395.6 374.606 395.6 374.69 395.6 L 374.69 395.6 L 824.008 395.6 L 824.008 395.6 L 824.748 395.6 L 824.748 395.603 C 845.368 395.797 865.11 404.076 879.689 418.655 C 894.437 433.403 902.738 453.435 902.743 474.315 L 902.658 474.315 C 902.162 494.501 893.923 513.764 879.626 528.061 C 864.873 542.814 844.833 551.115 823.946 551.115 L 823.946 551.115 C 823.928 551.115 823.911 551.104 823.894 551.082 Z " fill="rgb(0,0,0)" vector-effect="non-scaling-stroke" stroke-width="15" stroke="rgb(0,0,0)" stroke-linejoin="round" stroke-linecap="round" stroke-miterlimit="4"/></g></svg>